<?xml version="1.0" encoding="UTF-8"?>
<svg version="1.1" xmlns="http://www.w3.org/2000/svg" width="512" height="512">
<path d="M0 0 C1.4530957 -0.04350586 1.4530957 -0.04350586 2.93554688 -0.08789062 C10.51816738 -0.15453976 16.03926662 1.21619815 21.625 6.5 C26.01158393 13.81097322 27.11448385 21.98276416 28.3125 30.3125 C29.158125 30.56 30.00375 30.8075 30.875 31.0625 C34.3125 32.3125 34.3125 32.3125 37.5 34.625 C40.03090963 36.1616237 41.07565919 36.34479647 44.0625 35.9375 C46.85867664 35.16408944 49.57553619 34.27232345 52.3125 33.3125 C58.56210927 31.42395008 65.70948792 31.15560574 71.6875 33.8125 C79.12679947 40.89754711 86.54072398 51.11801067 86.875 61.6875 C86.7000533 68.47543213 83.0140929 73.00083546 78.3125 77.5625 C77.44625 78.41328125 76.58 79.2640625 75.6875 80.140625 C73.3125 82.3125 73.3125 82.3125 70.3125 84.3125 C69.92855333 87.08512255 69.70907752 89.65573528 69.625 92.4375 C69.59083984 93.19160156 69.55667969 93.94570312 69.52148438 94.72265625 C69.43895722 96.58541201 69.37405289 98.44893326 69.3125 100.3125 C71.24113892 100.28893433 71.24113892 100.28893433 73.20874023 100.26489258 C78.01141006 100.21030098 82.81405283 100.17604406 87.61694336 100.14770508 C89.68958154 100.13268479 91.76218829 100.11226253 93.8347168 100.08618164 C96.82608836 100.04949976 99.8170371 100.03270565 102.80859375 100.01953125 C103.72458847 100.00404739 104.64058319 99.98856354 105.58433533 99.97261047 C115.33324914 99.97010087 122.2633332 102.39287073 129.36328125 109.12109375 C135.09568015 115.5657346 136.46053219 122.36784716 136.55078125 130.78125 C136.558853 131.498573 136.56692474 132.215896 136.57524109 132.95495605 C136.5890347 134.46783054 136.59977786 135.98073554 136.60766602 137.49365234 C136.6192227 139.03964361 136.63973257 140.58559385 136.66918945 142.13134766 C136.71181085 144.36908986 136.7280221 146.60565267 136.73828125 148.84375 C136.76454338 149.87671204 136.76454338 149.87671204 136.79133606 150.93054199 C136.77616924 154.287187 136.5344763 156.02245175 134.46948242 158.72070312 C131.66064518 160.79355188 129.79782138 161.24137099 126.3125 161.3125 C121.74728261 159.18206522 121.74728261 159.18206522 120.3125 156.3125 C120.20515059 154.05908615 120.15692803 151.80275386 120.13671875 149.546875 C120.11350908 148.16795368 120.08939128 146.7890474 120.06445312 145.41015625 C120.02943434 143.23997092 120.00004865 141.07033496 119.98657227 138.89990234 C119.97100493 136.80238322 119.93073544 134.70646578 119.88671875 132.609375 C119.86484497 130.72750488 119.86484497 130.72750488 119.8425293 128.80761719 C119.2148214 124.66838811 117.97236485 122.51876779 115.3125 119.3125 C112.12134204 117.01036698 109.10322105 117.01222709 105.234375 116.8984375 C104.07421875 116.85976562 102.9140625 116.82109375 101.71875 116.78125 C100.5121875 116.7503125 99.305625 116.719375 98.0625 116.6875 C96.84046875 116.64882812 95.6184375 116.61015625 94.359375 116.5703125 C91.3439006 116.47607892 88.32843172 116.39046545 85.3125 116.3125 C85.6425 117.3025 85.9725 118.2925 86.3125 119.3125 C86.38052967 121.04045352 86.39745645 122.77085365 86.375 124.5 C86.36597656 125.40105469 86.35695313 126.30210937 86.34765625 127.23046875 C86.33025391 128.26107422 86.33025391 128.26107422 86.3125 129.3125 C87.33730469 129.32667969 88.36210937 129.34085938 89.41796875 129.35546875 C90.77868971 129.40239016 92.13936541 129.45063744 93.5 129.5 C94.17353516 129.50580078 94.84707031 129.51160156 95.54101562 129.51757812 C99.06753115 129.67240076 101.12477404 130.17845418 104.00841331 132.23751831 C107.25365948 136.56855004 107.01013656 139.93798972 106.94741821 145.21923828 C106.95521817 146.22453646 106.96301812 147.22983463 106.97105443 148.26559639 C106.99101785 151.63837317 106.97519206 155.01002709 106.95947266 158.3828125 C106.9662468 160.79905863 106.97514878 163.2152996 106.98602295 165.63153076 C107.00647553 171.51547286 107.00345436 177.39912272 106.98895974 183.28305674 C106.97766739 188.06505354 106.97613655 192.84696097 106.98157883 197.62896729 C106.98234499 198.30958509 106.98311116 198.99020289 106.98390054 199.69144547 C106.98549917 201.07411117 106.98712023 202.45677684 106.9887635 203.83944249 C107.00302098 216.80449788 106.98662838 229.7693765 106.95976166 242.73440289 C106.9374228 253.85883108 106.94130294 264.9829984 106.96435547 276.10742188 C106.99111359 289.02609236 107.00164768 301.94460791 106.98629415 314.86330223 C106.98470141 316.24087903 106.98312955 317.61845586 106.98157883 318.99603271 C106.98080745 319.67382534 106.98003607 320.35161797 106.97924132 321.04994977 C106.97492433 325.82616401 106.9822108 330.60227998 106.99397659 335.378479 C107.0094647 341.80701744 106.99843655 348.23517883 106.96950531 354.6636734 C106.96288352 357.0255781 106.96481068 359.38752421 106.97581863 361.74941254 C106.98944164 364.9687598 106.97239584 368.18651638 106.94741821 371.40576172 C106.95857182 372.34496019 106.96972543 373.28415867 106.98121703 374.2518177 C106.96817829 375.11560476 106.95513955 375.97939182 106.9417057 376.86935425 C106.94089394 377.61203489 106.94008218 378.35471554 106.93924582 379.11990166 C105.94979964 382.58136559 104.10058634 384.11178838 101.3125 386.3125 C98.28633785 386.93924582 98.28633785 386.93924582 94.83909607 386.9417057 C92.86415334 386.96126381 92.86415334 386.96126381 90.84931278 386.98121703 C89.3896914 386.97040691 87.93007346 386.95912363 86.47045898 386.94741821 C84.91877292 386.95317875 83.36709368 386.96111942 81.81542873 386.97105443 C77.54920157 386.99196061 73.28353238 386.9815957 69.01730299 386.96612334 C64.4173498 386.95482909 59.81749381 386.97226296 55.21755981 386.98602295 C46.20540041 387.00828051 37.19344896 387.00344297 28.18128133 386.98895974 C20.8582941 386.9776774 13.53536524 386.97613225 6.21237183 386.98157883 C4.65024968 386.98272807 4.65024968 386.98272807 3.05656952 386.98390054 C0.94109383 386.98549913 -1.17438185 386.9871202 -3.28985751 386.9887635 C-23.13645513 387.00302838 -42.98293736 386.98661667 -62.82951605 386.95976166 C-79.86654506 386.93742223 -96.90340375 386.94130215 -113.94042969 386.96435547 C-133.71498769 386.99110042 -153.4894445 387.00165501 -173.26401806 386.98629415 C-175.37180263 386.98470137 -177.47958722 386.98312952 -179.58737183 386.98157883 C-180.62449879 386.98080745 -181.66162575 386.98003607 -182.7301808 386.97924132 C-190.04614821 386.9749204 -197.36205155 386.98221931 -204.67800903 386.99397659 C-213.59122139 387.00798563 -222.50421354 387.0042353 -231.4174006 386.97757287 C-235.96692672 386.96441315 -240.5160854 386.95931886 -245.06560898 386.97581863 C-249.22814688 386.99068685 -253.38997579 386.98258239 -257.55244911 386.95593087 C-259.06044686 386.95033252 -260.56850416 386.95321669 -262.07646382 386.96530981 C-264.12230026 386.98046151 -266.16830384 386.96196544 -268.21409607 386.9417057 C-269.92048075 386.94048806 -269.92048075 386.94048806 -271.66133785 386.93924582 C-275.6463759 386.11390804 -277.15622743 384.42715462 -279.6875 381.3125 C-280.31568909 378.65686035 -280.31568909 378.65686035 -280.31860352 375.77539062 C-280.33113663 374.69076538 -280.34366974 373.60614014 -280.35658264 372.48864746 C-280.34332443 371.3270813 -280.33006622 370.16551514 -280.31640625 368.96875 C-280.31881821 367.76690063 -280.32123016 366.56505127 -280.32371521 365.32678223 C-280.32273665 362.78829648 -280.30934127 360.24978942 -280.28442383 357.71142578 C-280.25012282 353.82641078 -280.26376544 349.94367089 -280.28320312 346.05859375 C-280.27630458 343.59113615 -280.26663212 341.12368442 -280.25390625 338.65625 C-280.25886612 337.49468384 -280.26382599 336.33311768 -280.26893616 335.13635254 C-280.15155706 327.09709743 -280.15155706 327.09709743 -277.77709961 323.08251953 C-275.53116199 321.18007208 -274.59706696 320.63067252 -271.6875 320.6875 C-271.0275 320.67460937 -270.3675 320.66171875 -269.6875 320.6484375 C-267.6875 321.3125 -267.6875 321.3125 -263.6875 326.3125 C-263.6875 340.8325 -263.6875 355.3525 -263.6875 370.3125 C-146.8675 370.3125 -30.0475 370.3125 90.3125 370.3125 C90.3125 296.3925 90.3125 222.4725 90.3125 146.3125 C77.83971816 146.22898109 77.83971816 146.22898109 70.3125 152.3125 C61.98103599 155.08965467 54.17180365 152.98104579 46.16015625 150.08984375 C42.2298643 149.0169657 40.55375485 149.66645439 37.0234375 151.50390625 C36.25257813 151.95636719 35.48171875 152.40882813 34.6875 152.875 C30.53063031 155.3125 30.53063031 155.3125 28.3125 155.3125 C28.14234375 156.3746875 27.9721875 157.436875 27.796875 158.53125 C24.88971572 175.82700776 24.88971572 175.82700776 18.875 181.6875 C12.89870926 185.47734291 7.86345089 185.64904844 0.9375 185.625 C0.01710938 185.64111328 -0.90328125 185.65722656 -1.8515625 185.67382812 C-8.19072836 185.6783561 -13.32263798 185.1541016 -18.37207031 180.88989258 C-22.79383516 176.32886479 -23.75302593 171.91648807 -24.8125 165.8125 C-25.90361123 160.80614033 -26.80843209 157.25730466 -30.3515625 153.44921875 C-35.02779288 150.49549855 -39.00857933 148.65804272 -44.5625 149.75 C-46.73135583 150.449001 -46.73135583 150.449001 -48.6875 151.3125 C-55.16704973 153.90431989 -62.63415532 154.97970141 -69.2421875 152.26171875 C-71.238166 151.05773884 -73.01454204 149.93625332 -74.6875 148.3125 C-74.6875 147.6525 -74.6875 146.9925 -74.6875 146.3125 C-80.2975 146.6425 -85.9075 146.9725 -91.6875 147.3125 C-90.70027556 155.343198 -90.70027556 155.343198 -86.23828125 161.7734375 C-81.91441207 164.63340848 -78.60166968 166.43520318 -73.3359375 166.09765625 C-70.33308793 165.36338282 -67.55451219 164.46109956 -64.6875 163.3125 C-61.60785384 162.28595128 -59.23412186 162.04516603 -56 161.9375 C-55.00613281 161.88851562 -54.01226562 161.83953125 -52.98828125 161.7890625 C-47.66527727 162.63318384 -43.60472799 165.02216868 -40.13061523 169.17236328 C-38.72077774 171.25199234 -37.47179192 173.36754789 -36.25 175.5625 C-35.6012793 176.63177734 -35.6012793 176.63177734 -34.93945312 177.72265625 C-31.7274575 183.30217916 -29.70709475 189.12501403 -31.21777344 195.57739258 C-33.57049608 202.68362875 -38.30873446 207.01849385 -43.8828125 211.76171875 C-47.06058985 214.4433883 -47.06058985 214.4433883 -48.33984375 218.3671875 C-49.03101501 225.56921139 -49.03101501 225.56921139 -46.45117188 232.09521484 C-43.8053545 234.92067626 -40.88382579 237.27077009 -37.82421875 239.62890625 C-33.6949701 242.8871274 -31.5276054 247.01809568 -30.875 252.25 C-30.78605469 252.85714844 -30.69710938 253.46429688 -30.60546875 254.08984375 C-30.85051505 260.72943165 -33.95808369 266.02779568 -37.375 271.5 C-37.78427734 272.19802734 -38.19355469 272.89605469 -38.61523438 273.61523438 C-41.66283745 278.53540463 -44.35911586 280.9791167 -49.6875 283.3125 C-57.26658559 284.70729789 -63.97423379 282.92724839 -70.99609375 280.08984375 C-74.09249192 279.19552846 -75.62634098 279.39560768 -78.6875 280.3125 C-79.925 280.67988281 -79.925 280.67988281 -81.1875 281.0546875 C-84.96095308 282.76453343 -87.87532497 284.33918717 -89.51708984 288.328125 C-90.47826775 291.60865204 -91.20958098 294.91824677 -91.92797852 298.2590332 C-93.32279783 304.55255096 -95.05281566 309.60517248 -100.6875 313.3125 C-106.04844637 315.7285866 -111.28923825 315.67936865 -117.0625 315.6875 C-117.97 315.71199219 -118.8775 315.73648437 -119.8125 315.76171875 C-127.14702345 315.79342418 -132.60822539 314.22532734 -138 309.125 C-142.38658393 301.81402678 -143.48948385 293.64223584 -144.6875 285.3125 C-145.55375 285.065 -146.42 284.8175 -147.3125 284.5625 C-150.6875 283.3125 -150.6875 283.3125 -153.5 281.0625 C-157.52663918 278.85179614 -159.20284618 279.40019244 -163.47265625 280.59375 C-165.33887175 281.19936491 -167.20116265 281.81705422 -169.0625 282.4375 C-175.12069859 283.8998238 -181.02944715 284.16508299 -187 282.25 C-194.98668107 276.49216016 -201.55525287 266.72603408 -203.26953125 257.015625 C-203.47406558 250.92504706 -202.90210797 246.92849921 -198.6875 242.3125 C-189.59659091 232.76704545 -189.59659091 232.76704545 -186.6875 231.3125 C-185.45178652 221.23366924 -185.45178652 221.23366924 -188.22265625 211.90625 C-190.22597102 210.21322472 -190.22597102 210.21322472 -192.4453125 208.796875 C-194.9604409 207.13180742 -196.6693511 205.28835265 -198.625 203 C-199.19089844 202.34386719 -199.75679687 201.68773437 -200.33984375 201.01171875 C-203.32315634 197.25015071 -203.32127952 193.64138838 -203.29296875 188.953125 C-201.85634566 180.31484938 -196.33534188 171.14064742 -189.75 165.375 C-184.10437929 161.57284727 -179.41259271 161.70945536 -172.6875 162.3125 C-169.2747392 163.26070238 -166.00179711 164.36491239 -162.6953125 165.6328125 C-157.58951981 166.78658903 -153.39529787 164.46882338 -149 161.9375 C-143.33713739 157.89690033 -143.33713739 157.89690033 -141.6875 146.3125 C-181.9475 146.3125 -222.2075 146.3125 -263.6875 146.3125 C-263.64109375 157.29917969 -263.5946875 168.28585938 -263.546875 179.60546875 C-263.52644294 186.55534229 -263.50702222 193.50519412 -263.4921875 200.45507812 C-263.46843921 211.49234437 -263.44049871 222.5294886 -263.38574219 233.56665039 C-263.34588486 241.60443964 -263.32006967 249.64213006 -263.31114602 257.68001539 C-263.30592938 261.93642588 -263.29366143 266.19255361 -263.26457977 270.44887352 C-263.237428 274.45520125 -263.22905443 278.46112974 -263.23506927 282.46754074 C-263.23396892 283.93772743 -263.22601329 285.40792747 -263.2106781 286.87803459 C-263.19075816 288.88617666 -263.19794987 290.89453299 -263.20648193 292.90275574 C-263.20279476 294.02642138 -263.19910759 295.15008703 -263.19530869 296.30780315 C-263.79933817 299.99524221 -265.09911963 301.66733598 -267.6875 304.3125 C-269.6875 304.9765625 -269.6875 304.9765625 -271.6875 304.9375 C-272.3475 304.95039063 -273.0075 304.96328125 -273.6875 304.9765625 C-276.82629401 303.9343848 -277.88878996 302.03164661 -279.6875 299.3125 C-280.19365788 296.14997864 -280.19365788 296.14997864 -280.2021637 292.51879883 C-280.20910922 291.84835195 -280.21605475 291.17790506 -280.22321075 290.48714161 C-280.24146173 288.24759666 -280.23122279 286.00911335 -280.22094727 283.76953125 C-280.22800671 282.16115528 -280.23675184 280.55278595 -280.24705505 278.94442749 C-280.26955478 274.58078176 -280.26660824 270.21749863 -280.25773358 265.85381699 C-280.25262364 262.21052112 -280.25991621 258.5672934 -280.26720566 254.92400455 C-280.28420612 246.32980964 -280.28063689 237.73579228 -280.26391602 229.14160156 C-280.24698812 220.27492164 -280.26283794 211.40873378 -280.2951389 202.54210758 C-280.32182494 194.92836647 -280.32911367 187.31477863 -280.32062382 179.70099545 C-280.31569247 175.15403763 -280.3179215 170.60737601 -280.33841133 166.06045532 C-280.35675351 161.78552399 -280.35082821 157.51130136 -280.32621193 153.23640823 C-280.32119961 151.66787699 -280.32470483 150.09929188 -280.33736038 148.53080368 C-280.35327847 146.38845352 -280.33835737 144.24844089 -280.31568909 142.10620117 C-280.31510278 140.90791183 -280.31451647 139.7096225 -280.31391239 138.47502136 C-279.4765348 134.24741579 -278.17573989 132.81172379 -274.6875 130.3125 C-271.87580724 129.82964045 -269.67604175 129.65489813 -266.87309265 129.71122742 C-266.09294558 129.70695529 -265.31279851 129.70268317 -264.50901061 129.69828159 C-261.89824282 129.69005407 -259.28908622 129.71753105 -256.6784668 129.74487305 C-254.8058323 129.74628358 -252.93319503 129.74549144 -251.06056213 129.74266052 C-245.97813358 129.74122515 -240.89629429 129.77063471 -235.81400275 129.80553031 C-230.50223762 129.83677354 -225.19045918 129.83972295 -219.87861633 129.84565735 C-209.82051776 129.86120174 -199.76269071 129.90223841 -189.70471174 129.9524048 C-178.2538242 130.00827961 -166.80292374 130.0357801 -155.35193384 130.06088197 C-131.79697198 130.11315362 -108.2422512 130.20110763 -84.6875 130.3125 C-84.77128906 129.70921875 -84.85507812 129.1059375 -84.94140625 128.484375 C-85.04324219 127.68515625 -85.14507812 126.8859375 -85.25 126.0625 C-85.35441406 125.27359375 -85.45882813 124.4846875 -85.56640625 123.671875 C-85.68777349 121.30717126 -85.38383257 119.5613963 -84.6875 117.3125 C-110.66060122 117.21908816 -136.63367729 117.14853617 -162.60691261 117.10525131 C-174.66654702 117.08461985 -186.72607709 117.05648795 -198.78564453 117.01074219 C-209.29588972 116.97089248 -219.80605936 116.94507144 -230.316378 116.93614602 C-235.88232549 116.93092815 -241.44805683 116.91865185 -247.01393509 116.88957977 C-252.25222569 116.86244032 -257.49021098 116.85405211 -262.72856522 116.86006927 C-264.65145527 116.85896839 -266.57435548 116.85100585 -268.49718475 116.8356781 C-271.1228982 116.81577315 -273.74745929 116.82056251 -276.37319946 116.83148193 C-277.13391207 116.81983057 -277.89462468 116.8081792 -278.67838919 116.79617476 C-283.81531896 116.85390838 -286.78386599 117.98634481 -290.6875 121.3125 C-292.51908771 124.26633383 -292.93871758 126.49191297 -292.94476891 129.94215202 C-292.9512178 130.87299925 -292.95766669 131.80384647 -292.964311 132.76290119 C-292.9612138 133.78214935 -292.9581166 134.80139751 -292.95492554 135.85153198 C-292.95945665 136.93694121 -292.96398776 138.02235045 -292.96865618 139.14065087 C-292.98135145 142.79026192 -292.9796765 146.43972473 -292.97802734 150.08935547 C-292.98400936 152.70086866 -292.99081415 155.31238008 -292.99838257 157.92388916 C-293.01499838 164.28881045 -293.02049237 170.65369469 -293.02160732 177.01863585 C-293.0225575 182.19202649 -293.02666624 187.36540489 -293.03300858 192.53879166 C-293.05062235 207.20455385 -293.0598472 221.87028676 -293.05834763 236.5360596 C-293.05822776 237.72211391 -293.05822776 237.72211391 -293.05810547 238.93212891 C-293.05802371 239.72379657 -293.05794195 240.51546423 -293.05785771 241.33112182 C-293.0570447 254.16291957 -293.0761856 266.99459998 -293.1043822 279.82636379 C-293.13310223 293.00021234 -293.14692299 306.17400364 -293.14519465 319.3478843 C-293.14453045 326.74472835 -293.15003559 334.14144936 -293.17155075 341.53826523 C-293.19165226 348.49367511 -293.19109787 355.44882088 -293.17651749 362.40424347 C-293.174421 364.95924635 -293.17917993 367.51426528 -293.1912384 370.06924057 C-293.20661726 373.55296927 -293.19743042 377.03579228 -293.18197632 380.51950073 C-293.19226344 381.53428745 -293.20255057 382.54907417 -293.21314943 383.594612 C-293.15704129 389.3048822 -292.69061576 392.89205647 -288.6875 397.3125 C-285.19506079 399.61803028 -282.14998321 399.5649217 -278.0275898 399.56976891 C-277.02046913 399.57502802 -277.02046913 399.57502802 -275.99300259 399.58039337 C-273.732975 399.58973085 -271.47320376 399.5847781 -269.21316528 399.57992554 C-267.58056613 399.58366062 -265.94796877 399.58826156 -264.31537426 399.59365618 C-259.82095168 399.60591915 -255.32660336 399.60562185 -250.83216786 399.60326743 C-245.98816731 399.6028601 -241.14419082 399.61389039 -236.30020142 399.62338257 C-226.80703118 399.64001138 -217.31388578 399.64549296 -207.82070221 399.64660732 C-200.10631369 399.64755687 -192.39193338 399.65166246 -184.67754745 399.65800858 C-162.81790861 399.67562578 -140.95828943 399.68484665 -119.09864344 399.68334763 C-117.91963114 399.68326772 -116.74061885 399.6831878 -115.52587891 399.68310547 C-114.34543133 399.68302371 -113.16498374 399.68294195 -111.94876502 399.68285771 C-92.8121206 399.68204457 -73.67555484 399.70118791 -54.53893317 399.7293822 C-34.90141645 399.75808677 -15.26393812 399.77192385 4.37360013 399.77019465 C15.40336561 399.76952993 26.43304863 399.77505814 37.46279526 399.79655075 C46.85282743 399.8147306 56.24273973 399.81913621 65.63278185 399.8055319 C70.42541751 399.79898619 75.21782301 399.7989427 80.01043701 399.8162384 C84.39623512 399.83190348 88.78161932 399.82917311 93.16740693 399.81167014 C94.75554155 399.80858571 96.34370656 399.81228664 97.93180536 399.82339029 C100.08867591 399.83747405 102.24408703 399.82695679 104.40090752 399.81027794 C105.59941491 399.81071267 106.7979223 399.81114741 108.0327481 399.81159532 C112.52603723 399.12783031 115.84136036 397.17766559 118.67177773 393.5891571 C119.66798994 390.04934943 119.58523958 386.53243036 119.5640564 382.88598633 C119.56702654 382.0278449 119.56999667 381.16970346 119.57305682 380.28555775 C119.58070591 377.40514802 119.5741991 374.52494165 119.56787109 371.64453125 C119.57062051 369.5814907 119.57430011 367.5184512 119.57884216 365.45541382 C119.5869593 361.01049368 119.58912135 356.56562386 119.58689499 352.12069702 C119.58406605 345.09580358 119.59839757 338.07101104 119.61587524 331.04614258 C119.66294436 311.06951408 119.68685042 291.09289241 119.69335938 271.11621094 C119.69710537 260.08511737 119.71509682 249.05413789 119.74845374 238.02309322 C119.76871477 231.03608095 119.77101515 224.04936194 119.76017356 217.06233215 C119.75757274 212.72016939 119.77153945 208.37817863 119.79025459 204.03606033 C119.79559231 202.01882172 119.79405299 200.00155174 119.78521919 197.98432541 C119.77415007 195.23547391 119.78746858 192.48779305 119.80697632 189.73901367 C119.79785166 188.93629437 119.788727 188.13357508 119.77932584 187.30653095 C119.82906033 183.71791254 120.00600863 181.7129776 122.21909523 178.82124329 C124.47340795 177.19653161 125.56276329 176.74462942 128.3125 176.75 C129.3025 176.71712891 129.3025 176.71712891 130.3125 176.68359375 C133.53204906 177.69599101 134.52158168 179.49727497 136.3125 182.3125 C136.69391995 185.29392263 136.84517702 187.90015608 136.80697632 190.87704468 C136.81180515 191.73800739 136.81663398 192.5989701 136.82160914 193.48602259 C136.83287886 196.37038514 136.81556173 199.25386088 136.79833984 202.13818359 C136.80048577 204.20635722 136.80436356 206.27452967 136.80984497 208.34269714 C136.81954475 213.96057911 136.80422591 219.57814363 136.78393888 225.19598722 C136.76637637 231.07439026 136.76989284 236.95278336 136.7706604 242.83120728 C136.76878679 252.70555941 136.75141654 262.5797887 136.72412109 272.45410156 C136.6926871 283.8676702 136.6821243 295.28110419 136.6835922 306.694713 C136.68494386 318.84563384 136.67105479 330.99650282 136.65269899 343.14740801 C136.64843815 346.64789941 136.64701686 350.14838243 136.64622116 353.64887619 C136.64420999 359.15313698 136.63198147 364.65728501 136.61188889 370.16150856 C136.60605385 372.18071235 136.60358512 374.19992912 136.60474396 376.21914101 C136.60572783 378.97754269 136.59438993 381.7356302 136.57992554 384.49398804 C136.58302274 385.29117764 136.58611995 386.08836724 136.589311 386.9097141 C136.5475551 391.73901732 135.84195641 395.72570912 134.3125 400.3125 C135.09898926 400.29155273 135.88547852 400.27060547 136.69580078 400.24902344 C140.27623598 400.16562247 143.85646642 400.11376224 147.4375 400.0625 C148.675 400.02898437 149.9125 399.99546875 151.1875 399.9609375 C162.66050634 399.83757184 162.66050634 399.83757184 167.3125 404.3125 C170.62760156 409.28515235 169.68435849 415.2626816 169.68310547 421.08862305 C169.68743864 423.34307704 169.72364353 425.59550704 169.76171875 427.84960938 C169.8621296 440.35821682 167.609221 448.88537202 158.8203125 458.109375 C151.50141975 464.53905648 143.82987667 466.42102724 134.29077148 466.47363281 C133.26055878 466.48108017 133.26055878 466.48108017 132.20953369 466.48867798 C129.95087667 466.50321426 127.69228974 466.51008505 125.43359375 466.515625 C123.8584849 466.52138076 122.28337605 466.52713844 120.70826721 466.53289795 C117.41236038 466.54338171 114.11647778 466.54924242 110.82055664 466.55273438 C106.59813613 466.55823258 102.37603589 466.58229961 98.15371609 466.61070633 C94.90321409 466.62932439 91.65278967 466.63453772 88.40223885 466.63607025 C86.84530945 466.63909606 85.28838139 466.64712222 83.73150444 466.66025543 C81.55569787 466.67730915 79.38068025 466.67543856 77.20483398 466.66894531 C75.96749008 466.67259094 74.73014618 466.67623657 73.45530701 466.67999268 C70.05443306 466.28232388 68.67063089 465.75876156 66.3125 463.3125 C65.20876622 459.33905839 64.89706417 457.22250228 66.625 453.4375 C68.3125 451.3125 68.3125 451.3125 70.3125 450.3125 C72.4553707 450.21223463 74.60137596 450.17688894 76.74658203 450.1706543 C77.73723915 450.16544266 77.73723915 450.16544266 78.74790955 450.16012573 C80.18458334 450.15276682 81.62126853 450.14742216 83.0579567 450.14383507 C85.33714224 450.13666581 87.61611296 450.12099347 89.89523315 450.10249329 C96.37641347 450.05006341 102.85747964 450.00210546 109.33886719 449.98657227 C113.30309435 449.97644875 117.26678581 449.94700914 121.23080063 449.90525246 C122.73691618 449.89299345 124.24310761 449.88781183 125.74927139 449.89005089 C135.11376518 449.90054069 142.53707 449.83659158 149.6875 443.0625 C154.56337484 434.81101951 153.71724487 425.83658212 154.3125 416.3125 C92.6025 416.3125 30.8925 416.3125 -32.6875 416.3125 C-32.6875 419.2825 -32.6875 422.2525 -32.6875 425.3125 C-34.28033662 431.19662585 -37.77979782 434.90715563 -42.6875 438.3125 C-46.8620505 440.41197549 -50.7014061 440.60897666 -55.28833008 440.60302734 C-56.03698837 440.60974457 -56.78564667 440.61646179 -57.55699158 440.62338257 C-60.02373963 440.64232768 -62.49021504 440.64628512 -64.95703125 440.6484375 C-66.67950043 440.6548684 -68.40196852 440.66159698 -70.12443542 440.66860962 C-73.73312918 440.68057405 -77.34172727 440.68429136 -80.95043945 440.68310547 C-85.56044705 440.68290245 -90.16983699 440.71019022 -94.77969837 440.74464989 C-98.33748659 440.76695764 -101.89512715 440.77094181 -105.45297813 440.76988602 C-107.15174167 440.77223669 -108.85050961 440.78103003 -110.54920387 440.79655075 C-128.77390209 440.94746319 -128.77390209 440.94746319 -135.18440247 434.90048218 C-140.84343187 428.63623144 -140.6875 424.97125267 -140.6875 416.3125 C-202.3975 416.3125 -264.1075 416.3125 -327.6875 416.3125 C-327.68295996 433.04920054 -327.68295996 433.04920054 -319.6875 446.3125 C-312.95800612 450.29746102 -305.94602386 449.72504742 -298.32626343 449.67758179 C-296.85122958 449.67944142 -295.37619692 449.68263126 -293.90116847 449.6870333 C-289.85619246 449.69535673 -285.81144372 449.68513982 -281.76648855 449.67194462 C-277.40109812 449.66102644 -273.03573067 449.66750918 -268.67033386 449.67207336 C-261.1086227 449.67781717 -253.54697566 449.67319323 -245.98527145 449.66205978 C-235.04689228 449.64640638 -224.10859948 449.65196853 -213.17021902 449.66367622 C-195.41588757 449.68256714 -177.66156788 449.69178827 -159.90722656 449.69140625 C-158.31365745 449.69138009 -158.31365745 449.69138009 -156.68789501 449.6913534 C-144.83007488 449.690901 -132.97225896 449.68756936 -121.11444092 449.68048096 C-120.04784391 449.67984857 -118.98124691 449.67921619 -117.88232879 449.67856465 C-116.81677853 449.67793208 -115.75122828 449.67729952 -114.65338862 449.67664778 C-112.50460283 449.67537801 -110.35581704 449.6741126 -108.20703125 449.67285156 C-107.14533991 449.67222337 -106.08364857 449.67159518 -104.98978476 449.67094795 C-87.29916657 449.66100099 -69.60861848 449.67030141 -51.91801512 449.69503558 C-41.0041018 449.70948553 -30.09043473 449.70736663 -19.1765355 449.68407358 C-11.70290651 449.66935079 -4.22942219 449.672451 3.24420096 449.6897025 C7.55883063 449.69906045 11.87305916 449.70012658 16.18765831 449.67947197 C20.13545672 449.66072013 24.082539 449.66482805 28.03031187 449.68729956 C29.46019764 449.69134374 30.89013734 449.68688104 32.31996305 449.6731656 C44.34979942 449.56527933 44.34979942 449.56527933 47.65514183 452.66369057 C49.71790627 455.9604251 50.10752277 457.49639072 49.3125 461.3125 C46.82740022 464.37106227 45.30839327 466.09889859 41.40109569 466.93694448 C40.31785823 466.9366721 39.23462077 466.93639972 38.11855793 466.93611908 C36.86423066 466.94792442 35.6099034 466.95972976 34.31756622 466.97189283 C32.92820355 466.95970097 31.53884494 466.94703982 30.14949036 466.93395996 C28.67149093 466.93828872 27.19349655 466.9448045 25.71551532 466.95332003 C21.65273752 466.97033695 17.59057461 466.95611283 13.52782905 466.93680525 C9.14661054 466.92139765 4.76546834 466.93477533 0.38424683 466.94454956 C-8.20047819 466.95909058 -16.78496703 466.94682637 -25.3696697 466.92543632 C-35.36804044 466.90143802 -45.36635692 466.9031401 -55.36475006 466.90574223 C-73.20879194 466.90943437 -91.05272254 466.8885928 -108.89672852 466.85449219 C-126.20665298 466.82142452 -143.5164606 466.80722951 -160.82641602 466.81347656 C-179.67334135 466.82024485 -198.52021771 466.81776599 -217.36713582 466.79811716 C-218.8631088 466.79655793 -218.8631088 466.79655793 -220.38930345 466.7949672 C-222.39232337 466.79287631 -224.39534326 466.79076534 -226.39836314 466.78863403 C-233.36480938 466.78174441 -240.33124051 466.78106818 -247.29768944 466.78251648 C-255.79350429 466.78395819 -264.28922396 466.77422941 -272.78500726 466.75057012 C-277.11836507 466.73873133 -281.45159042 466.73157077 -285.78496361 466.73740768 C-289.75578712 466.74259805 -293.72633141 466.73382613 -297.69710723 466.71413308 C-299.12982377 466.70941246 -300.56256767 466.70966874 -301.99527993 466.71554345 C-315.29994548 466.76480517 -324.58708744 464.96288964 -334.375 455.71875 C-342.52143052 447.08353365 -343.3390715 437.0749887 -343.20898438 425.73364258 C-343.18736597 423.48606592 -343.20896036 421.24162571 -343.234375 418.99414062 C-343.23173435 417.55207635 -343.22661482 416.110014 -343.21875 414.66796875 C-343.21423828 413.37528076 -343.20972656 412.08259277 -343.20507812 410.75073242 C-342.60005883 406.7316349 -341.57140485 405.129389 -338.6875 402.3125 C-335.35411244 399.97772592 -332.39211093 400.07943763 -328.390625 400.1171875 C-327.18535156 400.12363281 -325.98007812 400.13007813 -324.73828125 400.13671875 C-323.48402344 400.15347656 -322.22976563 400.17023438 -320.9375 400.1875 C-319.66777344 400.19652344 -318.39804687 400.20554687 -317.08984375 400.21484375 C-313.95553907 400.23840995 -310.82161459 400.27131168 -307.6875 400.3125 C-308.01198435 399.38580694 -308.3364687 398.45911388 -308.6707859 397.50433922 C-310.10136831 392.45445987 -309.97063595 387.45713539 -309.95492554 382.24307251 C-309.95945665 381.13679894 -309.96398776 380.03052537 -309.96865618 378.89072835 C-309.98130405 375.1883401 -309.97967954 371.48609886 -309.97802734 367.78369141 C-309.98401229 365.12733922 -309.99076129 362.4709985 -309.99838257 359.81465149 C-310.01496917 353.3508756 -310.02049103 346.8871362 -310.02160732 340.42334081 C-310.02255879 335.16804932 -310.02667399 329.91276984 -310.03300858 324.65748215 C-310.05061362 309.74795386 -310.05984845 294.83845433 -310.05834763 279.92891558 C-310.05826772 279.12576211 -310.0581878 278.32260864 -310.05810547 277.49511719 C-310.05802371 276.69097989 -310.05794195 275.88684259 -310.05785771 275.05833749 C-310.05704473 262.02506235 -310.07618717 248.99190276 -310.1043822 235.95866103 C-310.13312423 222.56661077 -310.14692181 209.17461684 -310.14519465 195.78253496 C-310.14453126 188.26770989 -310.1500011 180.75300601 -310.17155075 173.23820877 C-310.18977981 166.84055425 -310.19409572 160.44307587 -310.1805319 154.04540659 C-310.17401115 150.78342175 -310.17603498 147.52184405 -310.1912384 144.25987816 C-310.20667517 140.71824922 -310.1973918 137.17750469 -310.18197632 133.63589478 C-310.19226344 132.6124382 -310.20255057 131.58898162 -310.21314943 130.53451121 C-310.12190157 121.03428555 -307.06226589 113.99275802 -300.62109375 107.0390625 C-293.89683914 101.03477858 -286.59703034 100.16207744 -277.89239502 100.19224548 C-276.99467935 100.19139106 -276.09696369 100.19053663 -275.17204452 100.18965632 C-272.15797044 100.18800659 -269.14395178 100.19351464 -266.12988281 100.19897461 C-263.97168479 100.19925662 -261.81348667 100.19909848 -259.6552887 100.1985321 C-253.79000177 100.19824466 -247.9247352 100.20413293 -242.05945301 100.21110606 C-235.93219416 100.21734832 -229.80493488 100.21794409 -223.67767334 100.21913147 C-212.07198955 100.2222422 -200.46631516 100.23045214 -188.86063552 100.24048096 C-175.64918715 100.25165008 -162.43773833 100.25715457 -149.22628641 100.26217639 C-122.04668573 100.27263495 -94.86709339 100.29022942 -67.6875 100.3125 C-67.77914548 97.89248139 -67.8892838 95.47571068 -68.01025391 93.05712891 C-68.03418716 92.37449478 -68.05812042 91.69186066 -68.08277893 90.98854065 C-68.30162186 86.9487523 -68.70168496 84.36959845 -71.5234375 81.3984375 C-73.23110702 79.95271841 -73.23110702 79.95271841 -75.0625 78.6875 C-76.24140142 77.76342662 -77.41601298 76.83385012 -78.5859375 75.8984375 C-79.40505615 75.25056274 -79.40505615 75.25056274 -80.24072266 74.58959961 C-84.57315409 70.7652748 -85.37924299 66.3363187 -85.734375 60.83984375 C-85.60772474 54.01128404 -81.89550342 48.7205216 -78.4375 43.0625 C-78.07930176 42.45954102 -77.72110352 41.85658203 -77.35205078 41.23535156 C-74.44554122 36.68194689 -71.62689321 34.54634194 -66.6875 32.3125 C-59.10841441 30.91770211 -52.40076621 32.69775161 -45.37890625 35.53515625 C-42.28250808 36.42947154 -40.74865902 36.22939232 -37.6875 35.3125 C-36.8625 35.06757812 -36.0375 34.82265625 -35.1875 34.5703125 C-31.36931534 32.84019757 -28.52153758 31.23793794 -26.79345703 27.24853516 C-25.48554356 23.13446089 -24.57870983 18.97348777 -23.72265625 14.74609375 C-22.62003162 9.48700131 -21.05511893 6.3382142 -16.6875 3.0625 C-11.13070046 -0.1789664 -6.26780464 0.06132881 0 0 Z M-6.6875 16.3125 C-9.36434452 21.79365782 -10.56809113 27.12938276 -11.6484375 33.12890625 C-14.06426099 40.53077145 -19.26928459 43.66269749 -25.8125 47.125 C-26.52792969 47.51880859 -27.24335938 47.91261719 -27.98046875 48.31835938 C-34.91937325 52.09908958 -40.95114544 53.68718339 -48.76953125 51.41796875 C-50.81988709 50.70249316 -52.8612876 49.96058092 -54.890625 49.1875 C-57.99439556 48.06368453 -57.99439556 48.06368453 -62.6875 48.3125 C-66.1525 54.7475 -66.1525 54.7475 -69.6875 61.3125 C-68.0375 62.9625 -66.3875 64.6125 -64.6875 66.3125 C-64.11644531 66.90675781 -63.54539062 67.50101563 -62.95703125 68.11328125 C-61.57176073 69.55054584 -60.130714 70.93342884 -58.6875 72.3125 C-58.0275 72.3125 -57.3675 72.3125 -56.6875 72.3125 C-52.97769796 78.9371465 -52.34547748 85.31622992 -52.375 92.75 C-52.35888672 93.55759766 -52.34277344 94.36519531 -52.32617188 95.19726562 C-52.32084583 101.8068871 -53.39873771 107.36980562 -57.51953125 112.66796875 C-58.17308594 113.27253906 -58.82664062 113.87710938 -59.5 114.5 C-60.19738281 115.15355469 -60.89476562 115.80710937 -61.61328125 116.48046875 C-64.26175473 118.81970427 -66.9279592 121.10486736 -69.6875 123.3125 C-67.92320801 128.28459562 -65.2935834 132.74688061 -62.6875 137.3125 C-58.26441634 136.91040149 -54.47129215 136.32159347 -50.3125 134.75 C-42.2759831 132.06662063 -36.83247505 132.45404582 -29.21679688 136.19628906 C-28.46462891 136.58526367 -27.71246094 136.97423828 -26.9375 137.375 C-26.21626953 137.74463867 -25.49503906 138.11427734 -24.75195312 138.49511719 C-19.15811147 141.58182075 -14.23341608 145.27578519 -11.88183594 151.41625977 C-11.29304295 153.62374198 -10.83784181 155.81352103 -10.4375 158.0625 C-9.35735379 163.97092129 -9.35735379 163.97092129 -6.6875 169.3125 C-4.06052936 169.53387393 -1.67856036 169.59412025 0.9375 169.5 C1.64390625 169.48646484 2.3503125 169.47292969 3.078125 169.45898438 C4.82324128 169.4236104 6.56796608 169.36980221 8.3125 169.3125 C10.41960663 163.29219534 12.05787515 157.35335778 13.37109375 151.109375 C15.63739951 144.37628404 20.44465382 141.73318014 26.375 138.5625 C27.09494141 138.16417969 27.81488281 137.76585937 28.55664062 137.35546875 C34.95994633 133.84762254 39.95893524 132.53948376 47.3125 133.3125 C50.46584147 134.24363557 53.49492168 135.32342021 56.55078125 136.53515625 C59.72270071 137.4279596 61.25462229 137.54780159 64.3125 136.3125 C66.29341976 133.95654856 66.29341976 133.95654856 67.75 131 C68.28496094 130.03449219 68.81992187 129.06898438 69.37109375 128.07421875 C70.54119885 125.45196028 70.54119885 125.45196028 69.8125 123.26171875 C67.02325944 119.63715875 63.41218966 116.89386085 59.94140625 113.9453125 C54.47153386 108.46731251 53.9117309 103.72313628 53.85351562 96.24023438 C53.86060547 95.12970703 53.86769531 94.01917969 53.875 92.875 C53.85501953 91.76833984 53.83503906 90.66167969 53.81445312 89.52148438 C53.81896776 81.9684938 54.4936121 77.41108471 59.76586914 71.75268555 C61.31907493 70.23151963 62.91830932 68.79694959 64.5625 67.375 C65.39394531 66.63540039 65.39394531 66.63540039 66.2421875 65.88085938 C67.59140604 64.68284636 68.95089254 63.49641341 70.3125 62.3125 C69.65347701 58.74209697 68.15020842 56.13517745 66.25 53.0625 C65.70214844 52.17046875 65.15429688 51.2784375 64.58984375 50.359375 C64.16832031 49.68390625 63.74679687 49.0084375 63.3125 48.3125 C58.87476929 48.71593006 55.05439531 49.31508485 50.875 50.875 C43.46629663 53.4035677 38.42036079 53.119813 31.3125 49.6875 C29.29681803 48.59084544 27.29604068 47.46627267 25.3125 46.3125 C24.43464844 45.80976562 23.55679688 45.30703125 22.65234375 44.7890625 C16.42115533 40.95916133 13.93901238 37.21505205 12.1796875 30.04296875 C11.84121926 28.5303568 11.5105967 27.01596972 11.1875 25.5 C10.49990176 20.50824498 10.49990176 20.50824498 8.3125 16.3125 C5.78200598 16.23936433 3.27945163 16.22002473 0.75 16.25 C0.03908203 16.25451172 -0.67183594 16.25902344 -1.40429688 16.26367188 C-3.16540013 16.27549136 -4.92646036 16.29342737 -6.6875 16.3125 Z M-124.6875 146.3125 C-126.79684942 152.33921263 -128.40511664 158.24928788 -129.6484375 164.515625 C-131.99254675 170.8253326 -137.76543857 173.844771 -143.3125 177.0625 C-144.31410156 177.65998047 -144.31410156 177.65998047 -145.3359375 178.26953125 C-151.22733966 181.74545853 -155.85057976 183.0721578 -162.6875 182.3125 C-166.07004231 181.36091008 -169.36462963 180.27613828 -172.671875 179.08984375 C-175.93989227 178.24744033 -177.55733866 178.06886687 -180.6875 179.3125 C-182.6221755 181.43943183 -182.6221755 181.43943183 -184.0625 184.125 C-184.84753906 185.43404297 -184.84753906 185.43404297 -185.6484375 186.76953125 C-186.84931777 189.18105106 -186.84931777 189.18105106 -186.5546875 191.41796875 C-185.50469786 193.71186503 -184.25939626 195.06981662 -182.4375 196.8125 C-181.49390625 197.72515625 -181.49390625 197.72515625 -180.53125 198.65625 C-178.59996426 200.44826971 -178.59996426 200.44826971 -175.9375 202.3125 C-172.31499974 205.53250023 -170.93585396 209.18529432 -170.38427734 213.90966797 C-170.24856404 216.86232192 -170.22909239 219.79442482 -170.25 222.75 C-170.2200293 224.24756836 -170.2200293 224.24756836 -170.18945312 225.77539062 C-170.19471689 233.78158251 -171.68587415 239.10515525 -177.1953125 244.9921875 C-178.49082031 246.07886719 -178.49082031 246.07886719 -179.8125 247.1875 C-180.68132812 247.92742187 -181.55015625 248.66734375 -182.4453125 249.4296875 C-183.18523437 250.05101562 -183.92515625 250.67234375 -184.6875 251.3125 C-185.6775 252.3025 -185.6775 252.3025 -186.6875 253.3125 C-186.32400459 256.87011461 -184.47620096 259.56906866 -182.625 262.5625 C-181.80322266 263.90054688 -181.80322266 263.90054688 -180.96484375 265.265625 C-180.54332031 265.94109375 -180.12179688 266.6165625 -179.6875 267.3125 C-175.64036063 266.88195326 -172.18668912 266.18786138 -168.375 264.75 C-161.0138239 262.28388208 -155.49919343 262.21558737 -148.34960938 265.5690918 C-133.15949847 273.21427301 -133.15949847 273.21427301 -129.6875 281.3125 C-128.84734846 284.22357859 -128.19390042 287.16246921 -127.5625 290.125 C-126.87490176 295.11675502 -126.87490176 295.11675502 -124.6875 299.3125 C-122.1932035 299.46563272 -119.74561507 299.54406517 -117.25 299.5625 C-116.55583984 299.583125 -115.86167969 299.60375 -115.14648438 299.625 C-112.88750953 299.67700458 -112.88750953 299.67700458 -109.6875 299.3125 C-107.65984251 296.27101376 -107.0944457 293.89823387 -106.39697266 290.35913086 C-103.6227426 276.49240283 -103.6227426 276.49240283 -97.6875 272.3125 C-88.96980943 266.69585851 -81.37315712 262.1892099 -70.6875 263.3125 C-67.53415853 264.24363557 -64.50507832 265.32342021 -61.44921875 266.53515625 C-58.29195669 267.42383397 -56.7416316 267.50275029 -53.6875 266.3125 C-51.75182182 264.22155356 -51.75182182 264.22155356 -50.3125 261.5625 C-49.78914062 260.70140625 -49.26578125 259.8403125 -48.7265625 258.953125 C-47.47150065 255.76356931 -47.43513048 254.49392257 -48.6875 251.3125 C-50.85820044 248.87448504 -50.85820044 248.87448504 -53.5625 246.6875 C-54.44679688 245.93210937 -55.33109375 245.17671875 -56.2421875 244.3984375 C-57.61457222 243.2277451 -58.9912738 242.06192161 -60.3828125 240.9140625 C-64.55961737 235.78684695 -64.02189479 229.12377387 -64 222.875 C-64.01611328 221.95912109 -64.03222656 221.04324219 -64.04882812 220.09960938 C-64.05379669 213.17839227 -63.1940506 208.17712926 -58.5 202.8125 C-56.89047978 201.38181536 -55.25430669 199.97750774 -53.55078125 198.66015625 C-51.43251706 196.97072041 -49.4921952 195.33430138 -47.6875 193.3125 C-47.09586704 187.86947679 -50.94322219 182.86941888 -53.6875 178.3125 C-59.31263248 178.75893909 -64.02357882 179.56053211 -69.25390625 181.69140625 C-76.43582427 183.52435162 -81.44353345 182.07234817 -87.75 178.6875 C-88.44955811 178.31995605 -89.14911621 177.95241211 -89.86987305 177.57373047 C-102.10558368 170.99199933 -102.10558368 170.99199933 -104.4375 163.625 C-104.87239957 161.85855607 -105.28804472 160.087295 -105.6875 158.3125 C-106.2204523 156.28935097 -106.76201398 154.26844873 -107.3125 152.25 C-107.55226563 151.33089844 -107.79203125 150.41179687 -108.0390625 149.46484375 C-108.49057397 147.35173481 -108.49057397 147.35173481 -109.6875 146.3125 C-112.21799402 146.23936433 -114.72054837 146.22002473 -117.25 146.25 C-117.96091797 146.25451172 -118.67183594 146.25902344 -119.40429688 146.26367188 C-121.16540013 146.27549136 -122.92646036 146.29342737 -124.6875 146.3125 Z M-124.6875 416.3125 C-124.6875 418.2925 -124.6875 420.2725 -124.6875 422.3125 C-121.83065394 425.16934606 -119.88395079 424.56627049 -115.8828125 424.57128906 C-114.83380768 424.57654602 -114.83380768 424.57654602 -113.76361084 424.58190918 C-111.44647362 424.59072876 -109.12964045 424.5848767 -106.8125 424.578125 C-105.20589133 424.57947159 -103.59928305 424.58141207 -101.99267578 424.58392334 C-98.62333298 424.5868749 -95.25409613 424.58257597 -91.88476562 424.57324219 C-87.56010506 424.56184758 -83.23569271 424.56840689 -78.91104126 424.58038712 C-75.5928357 424.58760488 -72.27468925 424.58531819 -68.95648193 424.58013153 C-67.361633 424.5787948 -65.76677875 424.58044358 -64.17193604 424.58509064 C-61.94520802 424.59015456 -59.71888524 424.58244788 -57.4921875 424.57128906 C-56.22358887 424.56969788 -54.95499023 424.56810669 -53.64794922 424.56646729 C-50.56799433 424.62238148 -50.56799433 424.62238148 -48.6875 422.3125 C-48.6875 420.3325 -48.6875 418.3525 -48.6875 416.3125 C-73.7675 416.3125 -98.8475 416.3125 -124.6875 416.3125 Z " fill="#000000" transform="translate(342.6875,22.6875)"/>
<path d="M0 0 C8.33757496 7.06241644 14.00143959 16.12166188 15.7734375 26.9921875 C16.78599829 39.46838295 14.08792791 50.9644545 5.96875 60.62109375 C-1.33406184 68.25585158 -10.2825534 73.79372841 -21.0078125 74.6875 C-21.71035156 74.75066406 -22.41289062 74.81382812 -23.13671875 74.87890625 C-35.37403208 75.48782553 -45.68747128 70.71863133 -54.9375 63.09765625 C-62.28031409 56.40088374 -66.41030736 46.98909494 -67.34375 37.14453125 C-67.4758457 24.82000276 -65.33155441 15.00120151 -57.0078125 5.6875 C-56.51796875 5.08292969 -56.028125 4.47835937 -55.5234375 3.85546875 C-41.5645059 -12.00381245 -16.30673754 -11.94632787 0 0 Z M-45.53515625 16.71484375 C-50.66665891 23.58860725 -51.89312745 30.1971845 -51.0078125 38.6875 C-50.6778125 39.3475 -50.3478125 40.0075 -50.0078125 40.6875 C-33.8378125 40.6875 -17.6678125 40.6875 -1.0078125 40.6875 C0.01373539 30.47202105 0.27837754 24.31202545 -6.1953125 16.3125 C-11.5967652 10.64784091 -17.91835954 8.04003905 -25.6328125 7.375 C-33.48326924 7.521191 -40.32837769 10.91722507 -45.53515625 16.71484375 Z M-33.0078125 56.6875 C-28.73074349 58.82603451 -26.69022165 59.0219578 -22.0078125 58.6875 C-20.6878125 58.0275 -19.3678125 57.3675 -18.0078125 56.6875 C-22.9578125 56.6875 -27.9078125 56.6875 -33.0078125 56.6875 Z " fill="#000000" transform="translate(369.0078125,82.3125)"/>
<path d="M0 0 C8.75581798 6.41414573 14.83846644 14.70848793 17.06640625 25.48046875 C18.5600405 37.22493532 17.31284574 48.86159879 10.1015625 58.59765625 C8.88482603 60.00217658 7.63489567 61.37871392 6.3515625 62.72265625 C5.45630859 63.67785156 5.45630859 63.67785156 4.54296875 64.65234375 C-2.82103078 71.78669673 -12.9765146 75.76485071 -23.2109375 75.97265625 C-35.04948909 75.77944547 -44.95396991 71.82234128 -53.71484375 63.83984375 C-61.84166651 55.16889247 -66.24667635 44.05804459 -65.89453125 32.16796875 C-64.73102258 20.60675565 -60.30728453 10.33533318 -51.76171875 2.3203125 C-36.07005465 -9.54270158 -16.54065789 -10.6857901 0 0 Z M-44.6484375 18.72265625 C-48.86660373 25.36402435 -50.76795087 32.012111 -49.22265625 39.89453125 C-47.29779839 46.74371872 -43.58401732 52.18215137 -37.5546875 56.07421875 C-30.57691579 59.69328691 -24.00827104 60.82847481 -16.2734375 58.72265625 C-9.87313718 56.37040912 -4.73773095 52.16549733 -1.1953125 46.328125 C1.78122462 39.67283953 2.78436768 33.12671641 0.50390625 26.1171875 C-2.84067884 18.62304937 -7.98750932 13.05459945 -15.5859375 9.78515625 C-26.5687631 6.35302325 -37.12888156 10.16794066 -44.6484375 18.72265625 Z " fill="#000000" transform="translate(249.6484375,211.27734375)"/>
</svg>
